<svg xmlns="http://www.w3.org/2000/svg" viewBox="0 0 1200 760" role="img" aria-labelledby="title desc">
  <title id="title">Learning to cook together</title>
  <desc id="desc">An editorial illustration of a learner and an instructor preparing food in a busy teaching kitchen.</desc>
  <defs>
    <linearGradient id="wall" x1="0" y1="0" x2="1" y2="1">
      <stop offset="0" stop-color="#d8cab5"/><stop offset="1" stop-color="#efe8db"/>
    </linearGradient>
    <filter id="grain"><feTurbulence baseFrequency=".8" numOctaves="3" stitchTiles="stitch" type="fractalNoise"/><feColorMatrix type="saturate" values="0"/><feComponentTransfer><feFuncA type="table" tableValues="0 .07"/></feComponentTransfer></filter>
  </defs>
  <rect width="1200" height="760" fill="url(#wall)"/>
  <rect x="0" y="0" width="1200" height="760" filter="url(#grain)" opacity=".55"/>
  <rect x="70" y="85" width="270" height="220" fill="#17334a"/>
  <rect x="90" y="105" width="230" height="180" fill="#8fb6b1"/>
  <path d="M90 238l77-76 47 49 44-35 62 62v47H90z" fill="#d9e5d2"/>
  <g fill="#10233f">
    <rect x="410" y="78" width="18" height="200"/><rect x="440" y="78" width="160" height="18"/>
    <circle cx="478" cy="176" r="37" fill="#f4c952"/><path d="M474 128c44 7 62 46 46 83l-20-17-44-10-17-31z"/>
    <circle cx="724" cy="199" r="41" fill="#d99670"/><path d="M679 184c6-55 66-69 91-20l-17 25-59 10z"/>
  </g>
  <path d="M430 260c23-64 115-75 151-10l42 245H389z" fill="#e34a2c"/>
  <path d="M651 282c13-75 122-90 163-24l38 237H622z" fill="#1f6b54"/>
  <path d="M549 307c89 4 130 64 174 119" fill="none" stroke="#d99670" stroke-width="31" stroke-linecap="round"/>
  <path d="M706 326c-59 58-92 89-145 117" fill="none" stroke="#f4c19a" stroke-width="29" stroke-linecap="round"/>
  <path d="M718 408l52 13-9 28-57-14z" fill="#10233f"/>
  <rect x="0" y="491" width="1200" height="269" fill="#eee7d8"/>
  <path d="M0 523h1200" stroke="#10233f" stroke-width="5"/>
  <ellipse cx="625" cy="564" rx="170" ry="38" fill="#f8f5ea" stroke="#10233f" stroke-width="4"/>
  <g fill="#e34a2c"><circle cx="573" cy="551" r="21"/><circle cx="627" cy="568" r="25"/><circle cx="682" cy="547" r="19"/></g>
  <path d="M192 491v269M975 491v269" stroke="#c7b9a2" stroke-width="4"/>
  <g transform="translate(885 160)">
    <rect width="230" height="260" rx="5" fill="#f8f5ea" stroke="#10233f" stroke-width="5"/>
    <path d="M45 61h140M45 102h140M45 143h92M45 184h120" stroke="#b6a890" stroke-width="12"/>
    <circle cx="190" cy="205" r="19" fill="#e34a2c"/>
  </g>
  <rect x="0" y="0" width="1200" height="760" fill="none" stroke="#10233f" stroke-width="14"/>
</svg>
